<?xml version="1.0" encoding="UTF-8"?>
<!DOCTYPE svg PUBLIC "-//W3C//DTD SVG 1.1//EN" "http://www.w3.org/Graphics/SVG/1.1/DTD/svg11.dtd">
<svg xmlns="http://www.w3.org/2000/svg" version="1.1" width="273px" height="354px" style="shape-rendering:geometricPrecision; text-rendering:geometricPrecision; image-rendering:optimizeQuality; fill-rule:evenodd; clip-rule:evenodd" xmlns:xlink="http://www.w3.org/1999/xlink">
<g><path style="opacity:1" fill="#ea7229" d="M 157.5,58.5 C 157.027,57.0937 156.027,56.427 154.5,56.5C 124.219,44.4272 100.719,52.4272 84,80.5C 82.2678,84.3634 80.9344,88.3634 80,92.5C 78.5939,108.79 78.0939,125.124 78.5,141.5C 131.834,141.333 185.168,141.5 238.5,142C 251.346,144.18 258.846,151.68 261,164.5C 261.667,198.833 261.667,233.167 261,267.5C 257.534,292.933 244.034,310.766 220.5,321C 215.323,322.961 209.99,324.294 204.5,325C 155.5,325.667 106.5,325.667 57.5,325C 25.1802,319.843 5.84682,301.343 -0.5,269.5C -0.5,233.5 -0.5,197.5 -0.5,161.5C 2.5567,152.608 8.5567,146.441 17.5,143C 24.4527,141.837 31.4527,141.337 38.5,141.5C 38.0824,123.125 38.5824,104.792 40,86.5C 42.2778,74.4785 46.7778,63.4785 53.5,53.5C 54.9063,53.0269 55.573,52.0269 55.5,50.5C 56.1237,48.246 57.457,46.5794 59.5,45.5C 60.9063,45.0269 61.573,44.0269 61.5,42.5C 63.5,39.8333 65.8333,37.5 68.5,35.5C 70.7488,34.9202 72.4154,33.5869 73.5,31.5C 89.7685,18.1264 108.602,11.1264 130,10.5C 175.021,13.199 204.687,35.8657 219,78.5C 220.735,86.4135 221.901,94.4135 222.5,102.5C 222.611,108.117 220.278,112.284 215.5,115C 207.579,116.568 199.579,116.901 191.5,116C 188.461,114.969 185.961,113.135 184,110.5C 183.54,94.7799 178.54,80.7799 169,68.5C 165.188,65.0311 161.355,61.6977 157.5,58.5 Z M 141.5,265.5 C 140.094,265.973 139.427,266.973 139.5,268.5C 131.255,274.685 124.422,273.351 119,264.5C 117.775,257.245 117.108,249.911 117,242.5C 101.401,229.208 100.568,215.041 114.5,200C 129.728,191.467 142.562,194.301 153,208.5C 156.801,217.881 156.135,226.881 151,235.5C 147.962,238.203 145.295,241.203 143,244.5C 142.761,251.548 142.261,258.548 141.5,265.5 Z"/></g>
<g><path style="opacity:0.961" fill="#f5a270" d="M 73.5,31.5 C 72.4154,33.5869 70.7488,34.9202 68.5,35.5C 69.5846,33.4131 71.2512,32.0798 73.5,31.5 Z"/></g>
<g><path style="opacity:0.839" fill="#f9b58d" d="M 61.5,42.5 C 61.573,44.0269 60.9063,45.0269 59.5,45.5C 59.427,43.9731 60.0937,42.9731 61.5,42.5 Z"/></g>
<g><path style="opacity:0.631" fill="#f8b48c" d="M 55.5,50.5 C 55.573,52.0269 54.9063,53.0269 53.5,53.5C 53.427,51.9731 54.0937,50.9731 55.5,50.5 Z"/></g>
<g><path style="opacity:0.584" fill="#f8b690" d="M 154.5,56.5 C 156.027,56.427 157.027,57.0937 157.5,58.5C 155.973,58.573 154.973,57.9063 154.5,56.5 Z"/></g>
<g><path style="opacity:0.827" fill="#f9b58d" d="M 141.5,265.5 C 141.573,267.027 140.906,268.027 139.5,268.5C 139.427,266.973 140.094,265.973 141.5,265.5 Z"/></g>
</svg>
